<svg xmlns="http://www.w3.org/2000/svg" viewBox="0 0 35 35"><defs><style>.a{fill:#003082;}</style></defs><title>abellio</title><path class="a" d="M23.88,9.785A8.562,8.562,0,0,0,20.6,7.234a9.7,9.7,0,0,0-3.764-.848,9.963,9.963,0,0,0-4.254.972A9.6,9.6,0,0,0,9.3,9.785a12.823,12.823,0,0,0-2.068,3.524A11.739,11.739,0,0,0,6.5,17.438a12.588,12.588,0,0,0,.731,4.254A11.338,11.338,0,0,0,9.3,25.215a10.413,10.413,0,0,0,3.158,2.427,7.685,7.685,0,0,0,4.13.972,10.068,10.068,0,0,0,4.129-.848A8.063,8.063,0,0,0,24,25.456v2.551h4.495V7.111H23.88Zm-.006,7.639a7.721,7.721,0,0,1-1.82,4.861,5.723,5.723,0,0,1-4.5,1.944,5.512,5.512,0,0,1-2.426-.607,7.088,7.088,0,0,1-1.944-1.455A7.639,7.639,0,0,1,11.85,20.1a5.875,5.875,0,0,1-.483-2.426A6.528,6.528,0,0,1,11.85,15a7.07,7.07,0,0,1,1.338-2.186,5.854,5.854,0,0,1,1.944-1.455,5.506,5.506,0,0,1,2.426-.482,6.233,6.233,0,0,1,4.62,1.944,6.98,6.98,0,0,1,1.7,4.619Z"/></svg>