<svg xmlns="http://www.w3.org/2000/svg" viewBox="0 0 35 35"><defs><style>.a{fill:#003082;}</style></defs><title>breng</title><path class="a" d="M23.784,12.282H17.519l1.855-1.49A2.217,2.217,0,1,0,16.8,7.182l.006-.006-6.856,5.5A2.217,2.217,0,0,0,9,14.376v.006c0,.039,0,.077,0,.116V14.5c0,.039,0,.078,0,.116a2.219,2.219,0,0,0,2.163,2.1H23.784a2.219,2.219,0,0,0,0-4.438h0Z"/><path class="a" d="M23.834,18.283H11.211A2.219,2.219,0,0,0,9,20.5v.008a2.217,2.217,0,0,0,2.213,2.213h6.268l-1.858,1.49a2.217,2.217,0,1,0,2.575,3.61l0,.006,6.858-5.506a2.221,2.221,0,0,0,.946-1.7v-.006c0-.038,0-.077,0-.116s0-.077,0-.116a2.218,2.218,0,0,0-2.161-2.1Z"/></svg>