<svg xmlns="http://www.w3.org/2000/svg" viewBox="0 0 35 35"><defs><style>.a{fill:#003082;}</style></defs><title>connexxion</title><path class="a" d="M11.189,9.582A5.232,5.232,0,0,0,6.77,12.1a2.478,2.478,0,0,0,.135,2.712c.271.352.813,1.03,1.383,1.762a32.846,32.846,0,0,1,2.061,2.712c.433.786.108,1.166-.326,1.708-.027.054-.081.108-.136.19-.162.189-.406.542-.731.949-.814,1.057-2.034,2.657-2.414,3.118a2.274,2.274,0,0,0-.271,2.494A4.657,4.657,0,0,0,10.592,30a4.808,4.808,0,0,0,2.875-.949c.542-.407,4.23-4.122,5.341-5.315l-.244-.244c-.677-.759-1.382-1.518-2.3-1.518h-.027C15.2,22,13.3,23.98,11.786,25.607c-.3.326-.57.624-.841.868a1.512,1.512,0,0,1-1.166.542,1.407,1.407,0,0,1-1.328-.84A1.521,1.521,0,0,1,8.83,24.5c.895-1.058,1.057-1.248,1.681-2.034l.407-.515c.027-.054.136-.136.244-.271a4.724,4.724,0,0,0,1.112-1.627c.027-.3-.081-.841-.922-1.736a.084.084,0,0,1-.027-.054c-.353-.461-1.41-1.762-1.98-2.44a2.9,2.9,0,0,0-.352-.434,1.583,1.583,0,0,1-.271-1.654A1.406,1.406,0,0,1,9.915,13,1.535,1.535,0,0,1,11,13.487c.326.352.732.841,1.166,1.356,1.058,1.3,2.386,2.928,3.173,2.928h.027c1.22-.054,2.711-1.762,2.982-2.061-.433-.515-3.985-4.636-4.636-5.206a3.753,3.753,0,0,0-2.522-.922"/><path class="a" d="M16.666,19.29c.407.515,3.959,4.636,4.637,5.206a3.63,3.63,0,0,0,2.494.922,5.319,5.319,0,0,0,4.447-2.5,2.593,2.593,0,0,0-.162-2.739c-.272-.352-.814-1.03-1.383-1.762a32.614,32.614,0,0,1-2.061-2.712c-.407-.786-.082-1.166.325-1.681.055-.081.109-.135.163-.217.163-.189.434-.569.759-1,.841-1.084,2.007-2.6,2.359-3.064a2.278,2.278,0,0,0,.3-2.494,4.871,4.871,0,0,0-7-1.3c-.57.407-4.23,4.149-5.342,5.315l.244.244c.678.759,1.356,1.545,2.3,1.545h.027c1.03-.027,2.9-2.033,4.42-3.66.3-.3.569-.624.84-.868a1.654,1.654,0,0,1,1.166-.542,1.41,1.41,0,0,1,1.329.84,1.611,1.611,0,0,1-.353,1.708c-.894,1.031-1.057,1.221-1.708,2.034l-.379.488c-.055.054-.136.163-.245.271a4.464,4.464,0,0,0-1.138,1.627c-.027.3.108.868.922,1.736a.208.208,0,0,0,.054.081c.352.434,1.464,1.789,1.979,2.467.163.217.3.353.326.407a1.532,1.532,0,0,1,.271,1.627A1.282,1.282,0,0,1,25.1,22a1.491,1.491,0,0,1-1.085-.488c-.352-.352-.732-.841-1.193-1.356-1.057-1.3-2.359-2.9-3.172-2.9-1.248.027-2.712,1.735-2.983,2.034"/></svg>