<svg xmlns="http://www.w3.org/2000/svg" viewBox="0 0 35 35"><defs><style>.a{fill:#003082;}</style></defs><title>ns</title><path class="a" d="M15.492,17.249a3.46,3.46,0,0,0-2.439-1H6.267l2.51-2.5h6.338a1,1,0,0,1,.688.313h0l3.7,3.693a3.456,3.456,0,0,0,2.438,1H28.73l-2.512,2.5H19.882a1.011,1.011,0,0,1-.688-.313h0ZM17.437,22.7a3.8,3.8,0,0,0,2.437,1.063h7.35L33.5,17.5l-6.274-6.258H23.711l5.021,5.006H21.955A1.32,1.32,0,0,1,21.263,16l0,0-3.7-3.692a3.8,3.8,0,0,0-2.437-1.063H7.774L1.5,17.5l6.274,6.258h3.515L6.27,18.753h6.776a1.317,1.317,0,0,1,.692.252l0,0Z"/></svg>