<svg xmlns="http://www.w3.org/2000/svg" viewBox="0 0 35 35"><defs><style>.a{fill:#003082;}</style></defs><title>syntus</title><path class="a" d="M15.457,30.5a13.007,13.007,0,0,1-8.439-3.11A.782.782,0,1,1,8.034,26.2a11.436,11.436,0,0,0,18.858-8.7,11.577,11.577,0,0,0-.157-1.9.782.782,0,0,1,1.543-.257A13.011,13.011,0,0,1,15.457,30.5Z"/><path class="a" d="M23.41,9.008a.775.775,0,0,1-.509-.189,11.5,11.5,0,0,0-2.068-1.414.782.782,0,1,1,.736-1.381A13.023,13.023,0,0,1,23.92,7.632a.782.782,0,0,1-.51,1.376Z"/><path class="a" d="M18.413,6.424a.777.777,0,0,1-.19-.023,11.459,11.459,0,0,0-2.511-.333l-.255,0a.782.782,0,1,1,0-1.564l.291,0a13.057,13.057,0,0,1,2.853.38.782.782,0,0,1-.188,1.541Z"/><path class="a" d="M10.127,7.271A.782.782,0,0,1,9.8,5.776a16.864,16.864,0,0,1,2.547-.9.781.781,0,1,1,.372,1.518,15.384,15.384,0,0,0-2.274.81A.785.785,0,0,1,10.127,7.271Z"/><path class="a" d="M27.947,11.644a2.163,2.163,0,1,1-2.162-2.163A2.163,2.163,0,0,1,27.947,11.644Z"/></svg>