<svg xmlns="http://www.w3.org/2000/svg" viewBox="0 0 35 35"><defs><style>.a{fill:#003082;}</style></defs><title>db</title><path class="a" d="M28.7,7.7H6.3a2.807,2.807,0,0,0-2.8,2.8v14a2.807,2.807,0,0,0,2.8,2.8H28.7a2.814,2.814,0,0,0,2.8-2.828V10.5A2.807,2.807,0,0,0,28.7,7.7Zm.756,16.772a.782.782,0,0,1-.751.812H6.3a.776.776,0,0,1-.756-.784v-14a.777.777,0,0,1,.728-.812H28.7a.776.776,0,0,1,.756.784Z"/><path class="a" d="M11.858,23.926h-4.7V11.1h4.7c3.332,0,5.152,2.072,5.152,6.356C17.01,21.154,15.75,23.9,11.858,23.926ZM13.9,17.71c0-2.576-.28-4.592-3.052-4.592h-.616v8.736h1.092C12.95,21.854,13.9,20.538,13.9,17.71Zm11.228-.5a3.16,3.16,0,0,0,2.24-3c0-.28-.056-3.136-3.668-3.136H18.354V23.9H22.89c1.2,0,4.956,0,4.956-3.612A3.091,3.091,0,0,0,25.13,17.206ZM21.406,13.09h.98c1.372,0,1.932.476,1.932,1.54a1.54,1.54,0,0,1-1.68,1.54h-1.2V13.09Zm1.26,8.764h-1.26v-3.3H22.75c1.6,0,1.988.924,1.988,1.652C24.738,21.854,23.17,21.854,22.666,21.854Z"/></svg>