<svg xmlns="http://www.w3.org/2000/svg" viewBox="0 0 35 35"><defs><style>.a{fill:#003082;}</style></defs><title>r-net</title><path class="a" d="M11.708,25.923h0a2.1,2.1,0,1,1-2.1-2.1h0a2.107,2.107,0,0,1,2.1,2.1Z"/><path class="a" d="M21.673,19.222A5.961,5.961,0,0,0,27.5,13.29h0a6.316,6.316,0,0,0-6.317-6.317H9.6a2.1,2.1,0,0,0-2.1,2.1h0V21.706h4.213V11.181h9.475a2.1,2.1,0,1,1,0,4.208H16.975a2.1,2.1,0,0,0-2.1,2.1,2.077,2.077,0,0,0,.618,1.487l8.42,8.421A2.1,2.1,0,0,0,27.5,25.914a2.077,2.077,0,0,0-.618-1.486h0Z"/></svg>