<svg xmlns="http://www.w3.org/2000/svg" width="226" height="226" viewBox="0 0 226 226"><defs><style>.cls-1{fill:#003082;}</style></defs><title>dial</title><g id="Layer_2" data-name="Layer 2"><g id="Layer_1-2" data-name="Layer 1"><path class="cls-1" d="M113,19a3.5,3.5,0,0,1-3.5-3.5V3.5a3.5,3.5,0,0,1,7,0v12A3.5,3.5,0,0,1,113,19Z"/><path class="cls-1" d="M113,226a3.5,3.5,0,0,1-3.5-3.5v-12a3.5,3.5,0,0,1,7,0v12A3.5,3.5,0,0,1,113,226Z"/><path class="cls-1" d="M15.5,116.5H3.5a3.5,3.5,0,0,1,0-7h12a3.5,3.5,0,0,1,0,7Z"/><path class="cls-1" d="M222.5,116.5h-12a3.5,3.5,0,0,1,0-7h12a3.5,3.5,0,0,1,0,7Z"/><path class="cls-1" d="M64.253,32.063a3.5,3.5,0,0,1-3.034-1.751l-6-10.392a3.5,3.5,0,0,1,6.062-3.5l6,10.392a3.5,3.5,0,0,1-3.028,5.251Z"/><path class="cls-1" d="M167.753,211.331a3.5,3.5,0,0,1-3.034-1.751l-6-10.392a3.5,3.5,0,1,1,6.062-3.5l6,10.392a3.5,3.5,0,0,1-3.028,5.251Z"/><path class="cls-1" d="M28.56,67.75a3.489,3.489,0,0,1-1.748-.469l-10.392-6a3.5,3.5,0,0,1,3.5-6.062l10.392,6A3.5,3.5,0,0,1,28.56,67.75Z"/><path class="cls-1" d="M207.827,171.25a3.486,3.486,0,0,1-1.747-.469l-10.392-6a3.5,3.5,0,1,1,3.5-6.062l10.392,6a3.5,3.5,0,0,1-1.753,6.531Z"/><path class="cls-1" d="M18.173,171.25a3.5,3.5,0,0,1-1.753-6.531l10.392-6a3.5,3.5,0,1,1,3.5,6.062l-10.392,6A3.486,3.486,0,0,1,18.173,171.25Z"/><path class="cls-1" d="M197.44,67.75a3.5,3.5,0,0,1-1.752-6.531l10.392-6a3.5,3.5,0,1,1,3.5,6.062l-10.392,6A3.489,3.489,0,0,1,197.44,67.75Z"/><path class="cls-1" d="M58.247,211.331a3.5,3.5,0,0,1-3.028-5.251l6-10.392a3.5,3.5,0,1,1,6.062,3.5l-6,10.392A3.5,3.5,0,0,1,58.247,211.331Z"/><path class="cls-1" d="M161.747,32.063a3.5,3.5,0,0,1-3.028-5.251l6-10.392a3.5,3.5,0,1,1,6.062,3.5l-6,10.392A3.5,3.5,0,0,1,161.747,32.063Z"/><circle class="cls-1" cx="101.345" cy="2.111" r="1.5"/><circle class="cls-1" cx="89.818" cy="3.937" r="1.5"/><circle class="cls-1" cx="78.545" cy="6.957" r="1.5"/><circle class="cls-1" cx="67.649" cy="11.14" r="1.5"/><circle class="cls-1" cx="47.462" cy="22.795" r="1.5"/><circle class="cls-1" cx="38.392" cy="30.139" r="1.5"/><circle class="cls-1" cx="30.139" cy="38.392" r="1.5"/><circle class="cls-1" cx="22.795" cy="47.462" r="1.5"/><circle class="cls-1" cx="11.14" cy="67.649" r="1.5"/><circle class="cls-1" cx="6.957" cy="78.545" r="1.5"/><circle class="cls-1" cx="3.937" cy="89.818" r="1.5"/><circle class="cls-1" cx="2.111" cy="101.345" r="1.5"/><circle class="cls-1" cx="2.111" cy="124.655" r="1.5"/><circle class="cls-1" cx="3.937" cy="136.182" r="1.5"/><circle class="cls-1" cx="6.957" cy="147.455" r="1.5"/><circle class="cls-1" cx="11.14" cy="158.351" r="1.5"/><circle class="cls-1" cx="22.795" cy="178.538" r="1.5"/><circle class="cls-1" cx="30.139" cy="187.608" r="1.5"/><circle class="cls-1" cx="38.392" cy="195.861" r="1.5"/><circle class="cls-1" cx="47.462" cy="203.205" r="1.5"/><circle class="cls-1" cx="67.649" cy="214.86" r="1.5"/><circle class="cls-1" cx="78.545" cy="219.043" r="1.5"/><circle class="cls-1" cx="89.818" cy="222.063" r="1.5"/><circle class="cls-1" cx="101.345" cy="223.889" r="1.5"/><circle class="cls-1" cx="124.655" cy="223.889" r="1.5"/><circle class="cls-1" cx="136.182" cy="222.063" r="1.5"/><circle class="cls-1" cx="147.455" cy="219.043" r="1.5"/><circle class="cls-1" cx="158.351" cy="214.86" r="1.5"/><circle class="cls-1" cx="178.538" cy="203.205" r="1.5"/><circle class="cls-1" cx="187.608" cy="195.861" r="1.5"/><circle class="cls-1" cx="195.861" cy="187.608" r="1.5"/><circle class="cls-1" cx="203.205" cy="178.538" r="1.5"/><circle class="cls-1" cx="214.86" cy="158.351" r="1.5"/><circle class="cls-1" cx="219.043" cy="147.455" r="1.5"/><circle class="cls-1" cx="222.063" cy="136.182" r="1.5"/><circle class="cls-1" cx="223.889" cy="124.655" r="1.5"/><circle class="cls-1" cx="223.889" cy="101.345" r="1.5"/><circle class="cls-1" cx="222.063" cy="89.818" r="1.5"/><circle class="cls-1" cx="219.043" cy="78.545" r="1.5"/><circle class="cls-1" cx="214.86" cy="67.649" r="1.5"/><circle class="cls-1" cx="203.205" cy="47.462" r="1.5"/><circle class="cls-1" cx="195.861" cy="38.392" r="1.5"/><circle class="cls-1" cx="187.608" cy="30.139" r="1.5"/><circle class="cls-1" cx="178.538" cy="22.795" r="1.5"/><circle class="cls-1" cx="158.351" cy="11.14" r="1.5"/><circle class="cls-1" cx="147.455" cy="6.957" r="1.5"/><circle class="cls-1" cx="136.182" cy="3.937" r="1.5"/><circle class="cls-1" cx="124.655" cy="2.111" r="1.5"/></g></g></svg>