<svg xmlns="http://www.w3.org/2000/svg" width="21.896" height="132" viewBox="0 0 21.896 132"><defs><style>.cls-1{fill:#db0029;}</style></defs><title>seconds</title><g id="Layer_2" data-name="Layer 2"><g id="Layer_1-2" data-name="Layer 1"><path class="cls-1" d="M21.9,40.038a10.96,10.96,0,0,0-9.733-10.876L11.893.735A.694.694,0,0,0,11.259,0h0a.692.692,0,0,0-.634.731l-.4,28.4a10.939,10.939,0,0,0-.31,21.806L8.758,132h4.379l-.768-81.117A10.957,10.957,0,0,0,21.9,40.038ZM10.948,44.73a4.692,4.692,0,1,1,4.692-4.692A4.7,4.7,0,0,1,10.948,44.73Z"/></g></g></svg>