<svg xmlns="http://www.w3.org/2000/svg" width="42.769" height="37.518" viewBox="0 0 42.769 37.518"><title>alert--large</title><path d="M40.959,37.518H1.809a1.807,1.807,0,0,1-1.564-2.71L19.82.9A1.788,1.788,0,0,1,21.384,0h0A1.791,1.791,0,0,1,22.95.9L42.524,34.808a1.807,1.807,0,0,1-1.565,2.71ZM20.253,1.153l.433.25L1.111,35.308a.807.807,0,0,0,.7,1.21h39.15a.807.807,0,0,0,.7-1.21L22.083,1.4a.833.833,0,0,0-1.4,0Z"/><rect x="20.885" y="13.16" width="1" height="12"/><circle cx="21.385" cy="29.16" r="1"/></svg>